<svg version="1.1" xmlns="http://www.w3.org/2000/svg" viewBox="0 0 1468.359375 739.5" width="1468.359375" height="739.5">
  <!-- svg-source:excalidraw -->
  
  <defs>
    
    
  </defs>
  <rect x="0" y="0" width="1468.359375" height="739.5" fill="#ffffff"/><g stroke-linecap="round"><g transform="translate(30.359375 40) rotate(0 0 10)"><path d="M0 0 C0.52 6.53, 0.89 11.11, 0 20 M0 0 C0.19 7.81, -0.27 15.75, 0 20" stroke="#000" stroke-width="1" fill="none"/></g></g><mask/><g stroke-linecap="round"><g transform="translate(12.359375 48) rotate(0 18 0)"><path d="M0 0 C8.16 0.88, 14.37 0.87, 36 0 M0 0 C13.1 -0.38, 26.34 0.19, 36 0" stroke="#000" stroke-width="1" fill="none"/></g></g><mask/><g stroke-linecap="round"><g transform="translate(12.359375 75) rotate(0 9 -7.5)"><path d="M0 0 C5.45 -4.25, 9.94 -6.89, 18 -15 M0 0 C3.48 -3.32, 7.88 -6.02, 18 -15" stroke="#000" stroke-width="1" fill="none"/></g></g><mask/><g stroke-linecap="round"><g transform="translate(30.359375 60) rotate(0 8 7.5)"><path d="M0 0 C5.41 6.32, 12.3 9.89, 16 15 M0 0 C5.01 5.15, 10.7 9.35, 16 15" stroke="#000" stroke-width="1" fill="none"/></g></g><mask/><g stroke-linecap="round" transform="translate(15.359375 10) rotate(0 15 15)"><path d="M17.39 -0.12 C20.48 0.23, 24.13 3.1, 26.29 5.54 C28.45 7.97, 30.31 11.29, 30.34 14.5 C30.37 17.71, 28.58 22.22, 26.49 24.79 C24.4 27.35, 21.02 29.33, 17.79 29.9 C14.55 30.48, 9.86 29.9, 7.07 28.25 C4.28 26.61, 2.14 23.05, 1.05 20.02 C-0.04 16.99, -0.46 13.08, 0.53 10.07 C1.52 7.07, 4.12 3.63, 7 1.99 C9.87 0.34, 15.72 0.39, 17.77 0.23 C19.82 0.06, 19.3 0.73, 19.28 1 M13.68 -0.25 C16.56 -0.64, 20.21 1.44, 22.74 3.19 C25.27 4.94, 27.77 7.24, 28.85 10.28 C29.94 13.31, 30.51 18.34, 29.25 21.41 C27.98 24.48, 24.33 27.36, 21.28 28.71 C18.23 30.06, 14.04 30.39, 10.92 29.5 C7.81 28.61, 4.48 25.84, 2.58 23.36 C0.68 20.88, -0.71 17.68, -0.49 14.63 C-0.28 11.58, 1.4 7.51, 3.85 5.06 C6.3 2.62, 12.51 0.66, 14.2 -0.05 C15.89 -0.77, 13.94 0.39, 13.97 0.77" stroke="#1e1e1e" stroke-width="2" fill="none"/></g><g transform="translate(10 72.5) rotate(0 21.37598419189453 10)"><text x="0" y="0" font-family="Virgil, Segoe UI Emoji" font-size="16px" fill="#1e1e1e" text-anchor="start" style="white-space: pre;" direction="ltr" dominant-baseline="text-before-edge">caller</text></g><g stroke-linecap="round"><g transform="translate(30.359375 677) rotate(0 0 10)"><path d="M0 0 C-0.77 5.38, -0.19 9.61, 0 20 M0 0 C-0.38 5.34, 0.24 10.89, 0 20" stroke="#000" stroke-width="1" fill="none"/></g></g><mask/><g stroke-linecap="round"><g transform="translate(12.359375 685) rotate(0 18 0)"><path d="M0 0 C14.56 -0.13, 27.96 -0.15, 36 0 M0 0 C12.42 0.35, 25.04 0.3, 36 0" stroke="#000" stroke-width="1" fill="none"/></g></g><mask/><g stroke-linecap="round"><g transform="translate(12.359375 712) rotate(0 9 -7.5)"><path d="M0 0 C6.4 -6.21, 13.01 -10.6, 18 -15 M0 0 C6.88 -5.4, 13.45 -11.51, 18 -15" stroke="#000" stroke-width="1" fill="none"/></g></g><mask/><g stroke-linecap="round"><g transform="translate(30.359375 697) rotate(0 8 7.5)"><path d="M0 0 C2.76 2.91, 7.29 7.09, 16 15 M0 0 C3.54 3.33, 6.37 6.63, 16 15" stroke="#000" stroke-width="1" fill="none"/></g></g><mask/><g stroke-linecap="round" transform="translate(15.359375 647) rotate(0 15 15)"><path d="M16.68 0.3 C19.7 0.55, 23.88 2.5, 26.01 4.84 C28.15 7.18, 29.3 11.18, 29.49 14.34 C29.68 17.5, 29.05 21.21, 27.16 23.77 C25.27 26.34, 21.35 28.97, 18.12 29.73 C14.9 30.49, 10.74 29.84, 7.84 28.35 C4.94 26.87, 1.88 23.73, 0.74 20.82 C-0.4 17.91, 0.05 13.94, 1.01 10.88 C1.96 7.82, 3.82 4.23, 6.48 2.45 C9.13 0.67, 15.09 0.51, 16.92 0.21 C18.75 -0.09, 17.47 0.47, 17.44 0.63 M18.51 0.55 C21.6 1.1, 24.62 3.37, 26.47 5.83 C28.32 8.29, 29.68 12.2, 29.61 15.31 C29.53 18.42, 28.16 21.96, 26.01 24.5 C23.87 27.04, 19.93 29.92, 16.72 30.56 C13.52 31.2, 9.34 30.15, 6.8 28.34 C4.26 26.52, 2.39 22.74, 1.5 19.67 C0.61 16.6, 0.3 12.8, 1.48 9.94 C2.65 7.07, 5.68 4, 8.53 2.51 C11.38 1.02, 16.92 1.38, 18.55 1.01 C20.18 0.64, 18.6 0.09, 18.33 0.28" stroke="#1e1e1e" stroke-width="2" fill="none"/></g><g transform="translate(10 709.5) rotate(0 21.37598419189453 10)"><text x="0" y="0" font-family="Virgil, Segoe UI Emoji" font-size="16px" fill="#1e1e1e" text-anchor="start" style="white-space: pre;" direction="ltr" dominant-baseline="text-before-edge">caller</text></g><g stroke-linecap="round" transform="translate(259.359375 15) rotate(0 75 32.5)"><path d="M0 0 C36.3 -2.4, 69.72 0.1, 150 0 M0 0 C48.86 1.7, 96.46 0.76, 150 0 M150 0 C147.46 20.77, 150.94 43.26, 150 65 M150 0 C150.09 15.95, 150.21 31.58, 150 65 M150 65 C117.22 65.34, 88.56 63.19, 0 65 M150 65 C100.58 64.38, 51.11 65.9, 0 65 M0 65 C-0.8 50.15, 0.59 34.86, 0 0 M0 65 C0.07 39.28, -1.45 14.92, 0 0" stroke="#1e1e1e" stroke-width="2" fill="none"/></g><g stroke-linecap="round" transform="translate(259.359375 652) rotate(0 75 32.5)"><path d="M0 0 C38.69 -1.2, 81.59 -0.56, 150 0 M0 0 C49.52 -1.03, 97.87 -0.41, 150 0 M150 0 C149.4 15.26, 150.6 26.42, 150 65 M150 0 C149.68 19.4, 149.31 37.37, 150 65 M150 65 C94.64 64.39, 35.62 64.25, 0 65 M150 65 C112.24 63.79, 76.55 63.97, 0 65 M0 65 C0.58 41.98, 1.32 18.65, 0 0 M0 65 C-1.03 39.35, -0.07 16.35, 0 0" stroke="#1e1e1e" stroke-width="2" fill="none"/></g><g stroke-linecap="round" transform="translate(528.359375 15) rotate(0 75 32.5)"><path d="M0 0 C51.74 2.08, 104.3 1.86, 150 0 M0 0 C30.05 -1.06, 61.07 -1.25, 150 0 M150 0 C150.88 19.41, 148.29 37.36, 150 65 M150 0 C150.33 16.45, 149.15 34.55, 150 65 M150 65 C117.35 65.49, 83.89 65.1, 0 65 M150 65 C105.11 65.17, 61.11 64.89, 0 65 M0 65 C1.16 41.29, 1.9 15.32, 0 0 M0 65 C-1.31 39.84, 0.41 12.95, 0 0" stroke="#1e1e1e" stroke-width="2" fill="none"/></g><g stroke-linecap="round" transform="translate(528.359375 652) rotate(0 75 32.5)"><path d="M0 0 C55.96 0.59, 110.91 -1.81, 150 0 M0 0 C51.12 0.79, 102.74 0.4, 150 0 M150 0 C150.5 12.04, 149.72 25.42, 150 65 M150 0 C149.54 19.36, 150.76 39.8, 150 65 M150 65 C117.27 66.05, 84.78 65.4, 0 65 M150 65 C110.98 63.4, 70.7 64.88, 0 65 M0 65 C1.54 48.4, 1.22 30.14, 0 0 M0 65 C0.81 42.46, -0.37 18.95, 0 0" stroke="#1e1e1e" stroke-width="2" fill="none"/></g><g stroke-linecap="round" transform="translate(728.359375 15) rotate(0 75 32.5)"><path d="M0 0 C32.61 -0.02, 62.36 0.31, 150 0 M0 0 C48.89 0.16, 97.11 0.06, 150 0 M150 0 C149.42 17.68, 149.69 35.82, 150 65 M150 0 C149.23 19.94, 149.38 37.43, 150 65 M150 65 C94.21 63.48, 37.22 63.85, 0 65 M150 65 C112.58 67.17, 77.17 66.3, 0 65 M0 65 C1.45 43.23, 1.57 19.43, 0 0 M0 65 C1.4 47.5, 1.23 30.64, 0 0" stroke="#1e1e1e" stroke-width="2" fill="none"/></g><g stroke-linecap="round" transform="translate(728.359375 652) rotate(0 75 32.5)"><path d="M0 0 C44.23 -2.29, 88.22 0.14, 150 0 M0 0 C38.92 -0.53, 78.64 -0.68, 150 0 M150 0 C150.11 23.62, 150.46 48.75, 150 65 M150 0 C150.51 20.34, 148.86 42.99, 150 65 M150 65 C98.87 65.3, 49.15 64.33, 0 65 M150 65 C116.41 65.15, 81.23 64.8, 0 65 M0 65 C0.98 44.01, 0.55 18.39, 0 0 M0 65 C-0.99 52.15, -0.99 37.33, 0 0" stroke="#1e1e1e" stroke-width="2" fill="none"/></g><g stroke-linecap="round" transform="translate(928.359375 15) rotate(0 82 32.5)"><path d="M0 0 C53.75 0.44, 111.88 -1.16, 164 0 M0 0 C37.65 0.47, 75.28 2.21, 164 0 M164 0 C162.84 21.94, 163.54 43.88, 164 65 M164 0 C162.62 15.86, 164.15 33.77, 164 65 M164 65 C119.96 63.48, 75.05 62.72, 0 65 M164 65 C99.68 65.98, 34.07 66.68, 0 65 M0 65 C1.33 40.4, -1.39 11.59, 0 0 M0 65 C0.11 41.31, -1.22 19.52, 0 0" stroke="#1e1e1e" stroke-width="2" fill="none"/></g><g stroke-linecap="round" transform="translate(928.359375 652) rotate(0 82 32.5)"><path d="M0 0 C53.83 2.08, 105.15 0.2, 164 0 M0 0 C52.74 -0.07, 108.21 0.53, 164 0 M164 0 C164.21 15.89, 164.46 31.15, 164 65 M164 0 C163.65 14.22, 164.85 26.6, 164 65 M164 65 C109.66 63.83, 55.23 66.87, 0 65 M164 65 C123.36 67.15, 83.59 67.52, 0 65 M0 65 C0.66 38.88, -2.37 15.47, 0 0 M0 65 C-0.22 39.62, 1.06 15.57, 0 0" stroke="#1e1e1e" stroke-width="2" fill="none"/></g><g stroke-linecap="round" transform="translate(1308.359375 15) rotate(0 75 32.5)"><path d="M0 0 C49.77 -1.37, 97.17 -0.13, 150 0 M0 0 C31.46 2.23, 63.79 0.94, 150 0 M150 0 C149.63 19.65, 148.88 36.44, 150 65 M150 0 C150.25 24.98, 149.17 49.56, 150 65 M150 65 C111.7 63.07, 77.53 63.44, 0 65 M150 65 C95.05 65.27, 39.87 65.64, 0 65 M0 65 C-1.43 38.43, 0.48 17.15, 0 0 M0 65 C-1.11 50.29, -0.49 34.28, 0 0" stroke="#1e1e1e" stroke-width="2" fill="none"/></g><g stroke-linecap="round" transform="translate(1308.359375 652) rotate(0 75 32.5)"><path d="M0 0 C29.71 -1.76, 61.35 -2.13, 150 0 M0 0 C43.99 0.73, 85.93 0.34, 150 0 M150 0 C150.58 16.02, 148.22 35.34, 150 65 M150 0 C149.78 14.12, 149.71 28.36, 150 65 M150 65 C104.39 66.15, 60.57 65.6, 0 65 M150 65 C91.34 66.86, 32.53 66.7, 0 65 M0 65 C-2.24 40.39, 1.21 12.31, 0 0 M0 65 C1.06 41.34, 0.41 17.38, 0 0" stroke="#1e1e1e" stroke-width="2" fill="none"/></g><g stroke-linecap="round"><g transform="translate(30.359375 95) rotate(0 0 276)"><path d="M0 0 C-0.03 190.89, -0.18 381.25, 0 552 M0 0 C-0.45 111.15, -0.6 222.56, 0 552" stroke="#999" stroke-width="1" fill="none"/></g></g><mask/><g stroke-linecap="round"><g transform="translate(334.359375 80) rotate(0 0 286)"><path d="M0 0 C-0.57 184.68, -0.89 369.99, 0 572 M0 0 C1.52 156.52, 1.57 313.13, 0 572" stroke="#999" stroke-width="1" fill="none"/></g></g><mask/><g stroke-linecap="round"><g transform="translate(603.359375 80) rotate(0 0 286)"><path d="M0 0 C-2.3 151.71, -2.38 303.4, 0 572 M0 0 C0.75 214.82, 0.82 429.94, 0 572" stroke="#999" stroke-width="1" fill="none"/></g></g><mask/><g stroke-linecap="round"><g transform="translate(803.359375 80) rotate(0 0 286)"><path d="M0 0 C0.54 130.95, 0.42 264.09, 0 572 M0 0 C-1.39 190.94, -1.25 381.89, 0 572" stroke="#999" stroke-width="1" fill="none"/></g></g><mask/><g stroke-linecap="round"><g transform="translate(1010.359375 80) rotate(0 0 286)"><path d="M0 0 C-2.81 187.17, -1.42 375.04, 0 572 M0 0 C-0.07 140.81, -0.02 281.49, 0 572" stroke="#999" stroke-width="1" fill="none"/></g></g><mask/><g stroke-linecap="round"><g transform="translate(1383.359375 80) rotate(0 0 286)"><path d="M0 0 C-0.48 121.58, 0 241.52, 0 572 M0 0 C-0.94 168.62, -1.09 336.67, 0 572" stroke="#999" stroke-width="1" fill="none"/></g></g><mask/><g mask="url(#mask-ZYgbV3Wy06yLKvKKEfdu8)" stroke-linecap="round"><g transform="translate(31.859375 116) rotate(0 149 0)"><path d="M-0.32 0.91 C49.44 1, 248.7 -0.41, 298.4 -0.65 M1.72 0.34 C51.37 0.68, 248.43 0.51, 297.67 0.55" stroke="#1e1e1e" stroke-width="2" fill="none"/></g><g transform="translate(31.859375 116) rotate(0 149 0)"><path d="M269.48 10.81 C279.22 8.61, 284.75 4.87, 297.67 0.55 M269.48 10.81 C277.04 7.74, 283.18 6.29, 297.67 0.55" stroke="#1e1e1e" stroke-width="2" fill="none"/></g><g transform="translate(31.859375 116) rotate(0 149 0)"><path d="M269.48 -9.71 C279.02 -6, 284.55 -3.83, 297.67 0.55 M269.48 -9.71 C277.06 -7.46, 283.2 -3.57, 297.67 0.55" stroke="#1e1e1e" stroke-width="2" fill="none"/></g></g><mask id="mask-ZYgbV3Wy06yLKvKKEfdu8"><rect x="0" y="0" fill="#fff" width="430.859375" height="216"/><rect x="100.89942169189453" y="96" fill="#000" width="159.91990661621094" height="40" opacity="1"/></mask><g mask="url(#mask-W9saErE5ZaSdxuLwGW4Jz)" stroke-linecap="round"><g transform="translate(335.859375 162) rotate(0 131.5 0)"><path d="M0.91 0.4 C44.83 0.45, 218.75 -0.02, 262.35 -0.06 M-0.07 -0.43 C44.35 -0.16, 221.13 1.11, 264.73 1.44" stroke="#1e1e1e" stroke-width="2" fill="none"/></g><g transform="translate(335.859375 162) rotate(0 131.5 0)"><path d="M236.46 11.49 C242.87 8.17, 247.79 6.42, 264.73 1.44 M236.46 11.49 C244.86 7.36, 254.91 4.37, 264.73 1.44" stroke="#1e1e1e" stroke-width="2" fill="none"/></g><g transform="translate(335.859375 162) rotate(0 131.5 0)"><path d="M236.61 -9.03 C242.93 -8.21, 247.82 -5.82, 264.73 1.44 M236.61 -9.03 C244.95 -6.76, 254.95 -3.34, 264.73 1.44" stroke="#1e1e1e" stroke-width="2" fill="none"/></g></g><mask id="mask-W9saErE5ZaSdxuLwGW4Jz"><rect x="0" y="0" fill="#fff" width="699.859375" height="262"/><rect x="382.58341217041016" y="142" fill="#000" width="169.5519256591797" height="40" opacity="1"/></mask><g mask="url(#mask-OY5AEh_yJnFagoGT-CqFq)" stroke-linecap="round"><g transform="translate(604.859375 208) rotate(0 200.5 0)"><path d="M0.4 -0.65 C67.28 -0.88, 334.15 -0.58, 400.94 -0.48 M-0.84 1.63 C65.9 1.48, 333.07 0.87, 399.95 0.8" stroke="#1e1e1e" stroke-width="2" fill="none"/></g><g transform="translate(604.859375 208) rotate(0 200.5 0)"><path d="M371.78 11.11 C378.34 8.09, 386.32 5.61, 399.95 0.8 M371.78 11.11 C379.12 8.99, 387.57 4.3, 399.95 0.8" stroke="#1e1e1e" stroke-width="2" fill="none"/></g><g transform="translate(604.859375 208) rotate(0 200.5 0)"><path d="M371.74 -9.41 C378.47 -6.82, 386.46 -3.67, 399.95 0.8 M371.74 -9.41 C379.15 -5.49, 387.61 -4.14, 399.95 0.8" stroke="#1e1e1e" stroke-width="2" fill="none"/></g></g><mask id="mask-OY5AEh_yJnFagoGT-CqFq"><rect x="0" y="0" fill="#fff" width="1106.859375" height="308"/><rect x="710.9274215698242" y="198" fill="#000" width="188.86390686035156" height="20" opacity="1"/></mask><g mask="url(#mask-xPUOW9aRzuNHVNtJ18UvE)" stroke-linecap="round"><g transform="translate(1011.859375 254) rotate(0 183.5 0)"><path d="M-0.65 -0.06 C60.29 -0.11, 305.25 0.09, 366.52 0.15 M1.22 -1.14 C61.87 -1.01, 304.49 1.27, 365.31 1.76" stroke="#1e1e1e" stroke-width="2" fill="none"/></g><g transform="translate(1011.859375 254) rotate(0 183.5 0)"><path d="M337.04 11.78 C347.52 7.36, 358.5 4.29, 365.31 1.76 M337.04 11.78 C347.06 8.01, 354.59 6.29, 365.31 1.76" stroke="#1e1e1e" stroke-width="2" fill="none"/></g><g transform="translate(1011.859375 254) rotate(0 183.5 0)"><path d="M337.21 -8.74 C347.7 -5.45, 358.61 -0.81, 365.31 1.76 M337.21 -8.74 C347.09 -5.85, 354.56 -0.9, 365.31 1.76" stroke="#1e1e1e" stroke-width="2" fill="none"/></g></g><mask id="mask-xPUOW9aRzuNHVNtJ18UvE"><rect x="0" y="0" fill="#fff" width="1479.859375" height="354"/><rect x="1080.7594299316406" y="234" fill="#000" width="229.19989013671875" height="40" opacity="1"/></mask><g mask="url(#mask-cbpAbIRZ1roeaYDdX8SXx)" stroke-linecap="round"><g transform="translate(1381.859375 300) rotate(0 -183.5 0)"><path d="M-0.06 -0.48 C-61.27 -0.39, -305.75 -0.06, -366.85 -0.07" stroke="#1e1e1e" stroke-width="2.5" fill="none" stroke-dasharray="1.5 8"/></g><g transform="translate(1381.859375 300) rotate(0 -183.5 0)"><path d="M-338.67 -10.35 C-348.94 -6.69, -357.65 -3, -366.85 -0.07" stroke="#1e1e1e" stroke-width="2.5" fill="none" stroke-dasharray="1.5 6"/></g><g transform="translate(1381.859375 300) rotate(0 -183.5 0)"><path d="M-338.66 10.17 C-348.82 6.98, -357.53 3.82, -366.85 -0.07" stroke="#1e1e1e" stroke-width="2.5" fill="none" stroke-dasharray="1.5 6"/></g></g><mask id="mask-cbpAbIRZ1roeaYDdX8SXx"><rect x="0" y="0" fill="#fff" width="1849.859375" height="400"/><rect x="1089.7994232177734" y="280" fill="#000" width="217.11990356445312" height="40" opacity="1"/></mask><g mask="url(#mask-M5VOoTRq3SU2HOQOjaW3T)" stroke-linecap="round"><g transform="translate(31.859375 346) rotate(0 149 0)"><path d="M-0.48 0.15 C49.28 0.21, 248.27 0.51, 297.93 0.3 M1.46 -0.82 C51.12 -1.14, 247.79 -1.74, 296.95 -1.67" stroke="#1e1e1e" stroke-width="2" fill="none"/></g><g transform="translate(31.859375 346) rotate(0 149 0)"><path d="M268.77 8.63 C275.96 6.1, 283.15 2.81, 296.95 -1.67 M268.77 8.63 C273.67 7.47, 280.7 4.26, 296.95 -1.67" stroke="#1e1e1e" stroke-width="2" fill="none"/></g><g transform="translate(31.859375 346) rotate(0 149 0)"><path d="M268.75 -11.89 C275.93 -9.37, 283.13 -7.6, 296.95 -1.67 M268.75 -11.89 C273.81 -8.8, 280.85 -7.76, 296.95 -1.67" stroke="#1e1e1e" stroke-width="2" fill="none"/></g></g><mask id="mask-M5VOoTRq3SU2HOQOjaW3T"><rect x="0" y="0" fill="#fff" width="430.859375" height="446"/><rect x="142.9154281616211" y="336" fill="#000" width="75.88789367675781" height="20" opacity="1"/></mask><g mask="url(#mask-lEgsFW3NmzWwwnRo0VRDc)" stroke-linecap="round"><g transform="translate(335.859375 392) rotate(0 131.5 0)"><path d="M0.15 -0.07 C44.04 -0.07, 219.67 -0.68, 263.3 -0.51 M-1.24 -1.15 C42.53 -0.95, 218.27 0.71, 262.51 0.75" stroke="#1e1e1e" stroke-width="2" fill="none"/></g><g transform="translate(335.859375 392) rotate(0 131.5 0)"><path d="M234.26 10.85 C242.51 8.34, 250.09 3.01, 262.51 0.75 M234.26 10.85 C245.8 7.61, 255.44 3.71, 262.51 0.75" stroke="#1e1e1e" stroke-width="2" fill="none"/></g><g transform="translate(335.859375 392) rotate(0 131.5 0)"><path d="M234.38 -9.67 C242.51 -6.14, 250.05 -5.42, 262.51 0.75 M234.38 -9.67 C245.72 -5.14, 255.3 -1.25, 262.51 0.75" stroke="#1e1e1e" stroke-width="2" fill="none"/></g></g><mask id="mask-lEgsFW3NmzWwwnRo0VRDc"><rect x="0" y="0" fill="#fff" width="699.859375" height="492"/><rect x="409.40740966796875" y="382" fill="#000" width="115.9039306640625" height="20" opacity="1"/></mask><g mask="url(#mask-ZIlxnFsp5CLcCkM2gbWr6)" stroke-linecap="round"><g transform="translate(1011.859375 438) rotate(0 183.5 0)"><path d="M-0.07 0.3 C61.1 0.09, 305.15 -0.91, 366.49 -1.12 M-1.56 -0.59 C59.44 -0.71, 303.73 -0.24, 365.27 -0.16" stroke="#1e1e1e" stroke-width="2" fill="none"/></g><g transform="translate(1011.859375 438) rotate(0 183.5 0)"><path d="M337.06 10.05 C344.87 6.56, 349.84 6.34, 365.27 -0.16 M337.06 10.05 C343.76 7.25, 349.96 4.78, 365.27 -0.16" stroke="#1e1e1e" stroke-width="2" fill="none"/></g><g transform="translate(1011.859375 438) rotate(0 183.5 0)"><path d="M337.09 -10.47 C344.92 -8.63, 349.88 -3.52, 365.27 -0.16 M337.09 -10.47 C343.6 -8.71, 349.8 -6.62, 365.27 -0.16" stroke="#1e1e1e" stroke-width="2" fill="none"/></g></g><mask id="mask-ZIlxnFsp5CLcCkM2gbWr6"><rect x="0" y="0" fill="#fff" width="1479.859375" height="538"/><rect x="1152.9594039916992" y="428" fill="#000" width="84.79994201660156" height="20" opacity="1"/></mask><g mask="url(#mask-oL_IxbHmgQIS73KkEvqYD)" stroke-linecap="round"><g transform="translate(1381.859375 484) rotate(0 -287 0)"><path d="M0.3 -0.51 C-95.58 -0.34, -479.24 1.04, -575.12 0.95 M-1 -1.83 C-96.54 -1.98, -477.73 -0.94, -572.99 -0.67" stroke="#1e1e1e" stroke-width="2" fill="none"/></g><g transform="translate(1381.859375 484) rotate(0 -287 0)"><path d="M-544.83 -11.01 C-554.48 -9.57, -560.83 -6.04, -572.99 -0.67 M-544.83 -11.01 C-551.09 -8.43, -557.32 -6.55, -572.99 -0.67" stroke="#1e1e1e" stroke-width="2" fill="none"/></g><g transform="translate(1381.859375 484) rotate(0 -287 0)"><path d="M-544.77 9.51 C-554.43 4.54, -560.8 1.67, -572.99 -0.67 M-544.77 9.51 C-551.21 7.7, -557.44 5.19, -572.99 -0.67" stroke="#1e1e1e" stroke-width="2" fill="none"/></g></g><mask id="mask-oL_IxbHmgQIS73KkEvqYD"><rect x="0" y="0" fill="#fff" width="2056.859375" height="584"/><rect x="960.2194519042969" y="474" fill="#000" width="269.27984619140625" height="20" opacity="1"/></mask><g mask="url(#mask-Y4ae9-bOCxs2HnmfNpR6N)" stroke-linecap="round"><g transform="translate(804.859375 530) rotate(0 287 0)"><path d="M-0.51 -1.12 C95.32 -1.32, 479.37 -1.27, 574.95 -0.93" stroke="#1e1e1e" stroke-width="2.5" fill="none" stroke-dasharray="1.5 8"/></g><g transform="translate(804.859375 530) rotate(0 287 0)"><path d="M546.74 9.28 C553.17 7.98, 561.78 1.66, 574.95 -0.93" stroke="#1e1e1e" stroke-width="2.5" fill="none" stroke-dasharray="1.5 6"/></g><g transform="translate(804.859375 530) rotate(0 287 0)"><path d="M546.77 -11.24 C553.24 -6.5, 561.84 -6.77, 574.95 -0.93" stroke="#1e1e1e" stroke-width="2.5" fill="none" stroke-dasharray="1.5 6"/></g></g><mask id="mask-Y4ae9-bOCxs2HnmfNpR6N"><rect x="0" y="0" fill="#fff" width="1479.859375" height="630"/><rect x="1022.9554138183594" y="520" fill="#000" width="137.80792236328125" height="20" opacity="1"/></mask><g mask="url(#mask-QZr1RA5y-vxCX4y5ZDs9V)" stroke-linecap="round"><g transform="translate(1381.859375 576) rotate(0 -183.5 0)"><path d="M-1.12 0.95 C-62.49 0.86, -307.1 -0.94, -367.93 -1.03" stroke="#1e1e1e" stroke-width="2.5" fill="none" stroke-dasharray="1.5 8"/></g><g transform="translate(1381.859375 576) rotate(0 -183.5 0)"><path d="M-339.69 -11.16 C-347.33 -9.69, -359.81 -3.33, -367.93 -1.03" stroke="#1e1e1e" stroke-width="2.5" fill="none" stroke-dasharray="1.5 6"/></g><g transform="translate(1381.859375 576) rotate(0 -183.5 0)"><path d="M-339.79 9.36 C-347.31 4.17, -359.75 3.86, -367.93 -1.03" stroke="#1e1e1e" stroke-width="2.5" fill="none" stroke-dasharray="1.5 6"/></g></g><mask id="mask-QZr1RA5y-vxCX4y5ZDs9V"><rect x="0" y="0" fill="#fff" width="1849.859375" height="676"/><rect x="1129.6714096069336" y="566" fill="#000" width="137.3759307861328" height="20" opacity="1"/></mask><g mask="url(#mask-r-gytU5sz_UQjYvoBLTJG)" stroke-linecap="round"><g transform="translate(1008.859375 622) rotate(0 -200.5 0)"><path d="M0.95 -0.93 C-65.97 -0.6, -335.11 0.82, -402.03 0.91" stroke="#1e1e1e" stroke-width="2.5" fill="none" stroke-dasharray="1.5 8"/></g><g transform="translate(1008.859375 622) rotate(0 -200.5 0)"><path d="M-373.88 -9.46 C-382.77 -8.29, -386.94 -3.22, -402.03 0.91" stroke="#1e1e1e" stroke-width="2.5" fill="none" stroke-dasharray="1.5 6"/></g><g transform="translate(1008.859375 622) rotate(0 -200.5 0)"><path d="M-373.81 11.07 C-382.53 6.96, -386.72 6.74, -402.03 0.91" stroke="#1e1e1e" stroke-width="2.5" fill="none" stroke-dasharray="1.5 6"/></g></g><mask id="mask-r-gytU5sz_UQjYvoBLTJG"><rect x="0" y="0" fill="#fff" width="1510.859375" height="722"/><rect x="702.3514175415039" y="602" fill="#000" width="212.0159149169922" height="40" opacity="1"/></mask><g transform="translate(286.1994094848633 37.5) rotate(0 48.15996551513672 10)"><text x="48.15996551513672" y="0" font-family="Virgil, Segoe UI Emoji" font-size="16px" fill="#000" text-anchor="middle" style="white-space: pre;" direction="ltr" dominant-baseline="text-before-edge">yikes.Session</text></g><g transform="translate(286.1994094848633 674.5) rotate(0 48.15996551513672 10)"><text x="48.15996551513672" y="0" font-family="Virgil, Segoe UI Emoji" font-size="16px" fill="#000" text-anchor="middle" style="white-space: pre;" direction="ltr" dominant-baseline="text-before-edge">yikes.Session</text></g><g transform="translate(580.3593826293945 37.5) rotate(0 22.99999237060547 10)"><text x="22.99999237060547" y="0" font-family="Virgil, Segoe UI Emoji" font-size="16px" fill="#000" text-anchor="middle" style="white-space: pre;" direction="ltr" dominant-baseline="text-before-edge">Engine</text></g><g transform="translate(580.3593826293945 674.5) rotate(0 22.99999237060547 10)"><text x="22.99999237060547" y="0" font-family="Virgil, Segoe UI Emoji" font-size="16px" fill="#000" text-anchor="middle" style="white-space: pre;" direction="ltr" dominant-baseline="text-before-edge">Engine</text></g><g transform="translate(771.9434051513672 37.5) rotate(0 31.415969848632812 10)"><text x="31.415969848632812" y="0" font-family="Virgil, Segoe UI Emoji" font-size="16px" fill="#000" text-anchor="middle" style="white-space: pre;" direction="ltr" dominant-baseline="text-before-edge">Adapter</text></g><g transform="translate(771.9434051513672 674.5) rotate(0 31.415969848632812 10)"><text x="31.415969848632812" y="0" font-family="Virgil, Segoe UI Emoji" font-size="16px" fill="#000" text-anchor="middle" style="white-space: pre;" direction="ltr" dominant-baseline="text-before-edge">Adapter</text></g><g transform="translate(952.7034149169922 27.5) rotate(0 57.65596008300781 20)"><text x="57.65596008300781" y="0" font-family="Virgil, Segoe UI Emoji" font-size="16px" fill="#000" text-anchor="middle" style="white-space: pre;" direction="ltr" dominant-baseline="text-before-edge">remote-server </text><text x="57.65596008300781" y="20" font-family="Virgil, Segoe UI Emoji" font-size="16px" fill="#000" text-anchor="middle" style="white-space: pre;" direction="ltr" dominant-baseline="text-before-edge">driver</text></g><g transform="translate(952.7034149169922 664.5) rotate(0 57.65596008300781 20)"><text x="57.65596008300781" y="0" font-family="Virgil, Segoe UI Emoji" font-size="16px" fill="#000" text-anchor="middle" style="white-space: pre;" direction="ltr" dominant-baseline="text-before-edge">remote-server </text><text x="57.65596008300781" y="20" font-family="Virgil, Segoe UI Emoji" font-size="16px" fill="#000" text-anchor="middle" style="white-space: pre;" direction="ltr" dominant-baseline="text-before-edge">driver</text></g><g transform="translate(1334.711410522461 37.5) rotate(0 48.64796447753906 10)"><text x="48.64796447753906" y="0" font-family="Virgil, Segoe UI Emoji" font-size="16px" fill="#000" text-anchor="middle" style="white-space: pre;" direction="ltr" dominant-baseline="text-before-edge">yikes! server</text></g><g transform="translate(1334.711410522461 674.5) rotate(0 48.64796447753906 10)"><text x="48.64796447753906" y="0" font-family="Virgil, Segoe UI Emoji" font-size="16px" fill="#000" text-anchor="middle" style="white-space: pre;" direction="ltr" dominant-baseline="text-before-edge">yikes! server</text></g><g transform="translate(100.89942169189453 96) rotate(0 80.0043802369386 20.134293238010116)"><text x="79.95995330810547" y="0" font-family="Virgil, Segoe UI Emoji" font-size="16px" fill="#1e1e1e" text-anchor="middle" style="white-space: pre;" direction="ltr" dominant-baseline="text-before-edge">attach(remote_url, </text><text x="79.95995330810547" y="20" font-family="Virgil, Segoe UI Emoji" font-size="16px" fill="#1e1e1e" text-anchor="middle" style="white-space: pre;" direction="ltr" dominant-baseline="text-before-edge">bearer_token)</text></g><g transform="translate(382.58341217041016 142) rotate(0 85.60410033151507 20.5053554327786)"><text x="84.77596282958984" y="0" font-family="Virgil, Segoe UI Emoji" font-size="16px" fill="#1e1e1e" text-anchor="middle" style="white-space: pre;" direction="ltr" dominant-baseline="text-before-edge">create remote client </text><text x="84.77596282958984" y="20" font-family="Virgil, Segoe UI Emoji" font-size="16px" fill="#1e1e1e" text-anchor="middle" style="white-space: pre;" direction="ltr" dominant-baseline="text-before-edge">session</text></g><g transform="translate(710.9274215698242 198) rotate(0 93.97877208170485 10.448846887675828)"><text x="94.43195343017578" y="0" font-family="Virgil, Segoe UI Emoji" font-size="16px" fill="#1e1e1e" text-anchor="middle" style="white-space: pre;" direction="ltr" dominant-baseline="text-before-edge">connect to yikes! server</text></g><g transform="translate(1080.7594299316406 234) rotate(0 114.03533361665905 20.30784848734737)"><text x="114.59994506835938" y="0" font-family="Virgil, Segoe UI Emoji" font-size="16px" fill="#1e1e1e" text-anchor="middle" style="white-space: pre;" direction="ltr" dominant-baseline="text-before-edge">HTTPS/WebSocket + scoped </text><text x="114.59994506835938" y="20" font-family="Virgil, Segoe UI Emoji" font-size="16px" fill="#1e1e1e" text-anchor="middle" style="white-space: pre;" direction="ltr" dominant-baseline="text-before-edge">bearer token</text></g><g transform="translate(1089.7994232177734 280) rotate(0 108.6005667556077 19.72540906350153)"><text x="108.55995178222656" y="0" font-family="Virgil, Segoe UI Emoji" font-size="16px" fill="#1e1e1e" text-anchor="middle" style="white-space: pre;" direction="ltr" dominant-baseline="text-before-edge">session metadata + event </text><text x="108.55995178222656" y="20" font-family="Virgil, Segoe UI Emoji" font-size="16px" fill="#1e1e1e" text-anchor="middle" style="white-space: pre;" direction="ltr" dominant-baseline="text-before-edge">replay</text></g><g transform="translate(142.9154281616211 336) rotate(0 37.66932692043483 9.348692161812522)"><text x="37.943946838378906" y="0" font-family="Virgil, Segoe UI Emoji" font-size="16px" fill="#1e1e1e" text-anchor="middle" style="white-space: pre;" direction="ltr" dominant-baseline="text-before-edge">prompt(...)</text></g><g transform="translate(409.40740966796875 382) rotate(0 57.4826029863674 9.80400758517905)"><text x="57.95196533203125" y="0" font-family="Virgil, Segoe UI Emoji" font-size="16px" fill="#1e1e1e" text-anchor="middle" style="white-space: pre;" direction="ltr" dominant-baseline="text-before-edge">send user turn</text></g><g transform="translate(1152.9594039916992 428) rotate(0 41.36341607753184 9.591485940292472)"><text x="42.39997100830078" y="0" font-family="Virgil, Segoe UI Emoji" font-size="16px" fill="#1e1e1e" text-anchor="middle" style="white-space: pre;" direction="ltr" dominant-baseline="text-before-edge">turn/start</text></g><g transform="translate(960.2194519042969 474) rotate(0 134.23140903599563 9.55491797864309)"><text x="134.63992309570312" y="0" font-family="Virgil, Segoe UI Emoji" font-size="16px" fill="#1e1e1e" text-anchor="middle" style="white-space: pre;" direction="ltr" dominant-baseline="text-before-edge">route to Claude or Codex runtime</text></g><g transform="translate(1022.9554138183594 520) rotate(0 69.12178503982727 8.914448305898418)"><text x="68.90396118164062" y="0" font-family="Virgil, Segoe UI Emoji" font-size="16px" fill="#1e1e1e" text-anchor="middle" style="white-space: pre;" direction="ltr" dominant-baseline="text-before-edge">normalized events</text></g><g transform="translate(1129.6714096069336 566) rotate(0 67.66342391856017 9.958484108373511)"><text x="68.6879653930664" y="0" font-family="Virgil, Segoe UI Emoji" font-size="16px" fill="#1e1e1e" text-anchor="middle" style="white-space: pre;" direction="ltr" dominant-baseline="text-before-edge">live event stream</text></g><g transform="translate(702.3514175415039 602) rotate(0 105.96644156686966 19.986395298317063)"><text x="106.0079574584961" y="0" font-family="Virgil, Segoe UI Emoji" font-size="16px" fill="#1e1e1e" text-anchor="middle" style="white-space: pre;" direction="ltr" dominant-baseline="text-before-edge">StreamDelta / ToolUse / </text><text x="106.0079574584961" y="20" font-family="Virgil, Segoe UI Emoji" font-size="16px" fill="#1e1e1e" text-anchor="middle" style="white-space: pre;" direction="ltr" dominant-baseline="text-before-edge">TurnComplete</text></g></svg>